<mxfile host="app.diagrams.net" modified="2023-05-25T22:13:50.197Z" agent="Mozilla/5.0 (Windows NT 10.0; Win64; x64) AppleWebKit/537.36 (KHTML, like Gecko) Chrome/113.0.0.0 Safari/537.36" version="21.3.4" etag="HITLh9i0B7ln5jzxMOQu" type="github">
  <diagram name="Page-1" id="pQVTaWoIdKllT6EyT1xy">
    <mxGraphModel>
      <root>
        <mxCell id="0" />
        <mxCell id="1" parent="0" />
      </root>
    </mxGraphModel>
  </diagram>
</mxfile>
